<?xml version="1.0" encoding="UTF-8"?>
<!DOCTYPE svg PUBLIC "-//W3C//DTD SVG 1.1//EN" "http://www.w3.org/Graphics/SVG/1.1/DTD/svg11.dtd">
<svg xmlns="http://www.w3.org/2000/svg" version="1.1" width="600px" height="500px" style="shape-rendering:geometricPrecision; text-rendering:geometricPrecision; image-rendering:optimizeQuality; fill-rule:evenodd; clip-rule:evenodd" xmlns:xlink="http://www.w3.org/1999/xlink">
<g><path style="opacity:1" fill="#050505" d="M -0.5,-0.5 C 199.5,-0.5 399.5,-0.5 599.5,-0.5C 599.5,166.167 599.5,332.833 599.5,499.5C 399.5,499.5 199.5,499.5 -0.5,499.5C -0.5,332.833 -0.5,166.167 -0.5,-0.5 Z"/></g>
<g><path style="opacity:1" fill="#3a619c" d="M 341.5,143.5 C 341.343,144.873 341.51,146.207 342,147.5C 348.365,150.03 351.865,154.697 352.5,161.5C 353.748,160.96 354.915,160.293 356,159.5C 356.497,162.146 356.664,164.813 356.5,167.5C 354.116,167.557 351.782,167.223 349.5,166.5C 343.616,168.157 337.616,168.824 331.5,168.5C 327.822,163.494 323.822,158.827 319.5,154.5C 318.064,152.917 316.398,151.417 314.5,150C 301.724,145.954 289.391,146.787 277.5,152.5C 276.403,154.535 274.737,155.868 272.5,156.5C 271.873,157.417 271.539,158.417 271.5,159.5C 269.192,162.815 266.859,166.149 264.5,169.5C 255.112,168.873 245.779,167.873 236.5,166.5C 235.417,165.635 235.251,164.635 236,163.5C 237.529,162.271 238.696,160.771 239.5,159C 240.766,158.691 241.933,158.191 243,157.5C 244.689,154.333 246.522,151.333 248.5,148.5C 264.506,131.661 281.006,115.327 298,99.5C 313.304,113.304 327.804,127.971 341.5,143.5 Z"/></g>
<g><path style="opacity:1" fill="#10a0bc" d="M 399.5,161.5 C 388.833,161.5 378.167,161.5 367.5,161.5C 367.5,161.167 367.5,160.833 367.5,160.5C 365.167,157.997 363.001,155.331 361,152.5C 340.03,131.986 319.03,111.319 298,90.5C 274.006,113.328 250.506,136.661 227.5,160.5C 227.5,160.833 227.5,161.167 227.5,161.5C 216.5,161.5 205.5,161.5 194.5,161.5C 194.337,159.143 194.503,156.81 195,154.5C 228.427,120.739 262.094,87.4053 296,54.5C 330.562,88.4001 364.896,122.067 399,155.5C 399.495,157.473 399.662,159.473 399.5,161.5 Z"/></g>
<g><path style="opacity:1" fill="#040b12" d="M 367.5,160.5 C 364.482,160.665 361.482,160.498 358.5,160C 353.609,154.427 348.609,149.093 343.5,144C 342.906,143.536 342.239,143.369 341.5,143.5C 327.804,127.971 313.304,113.304 298,99.5C 281.006,115.327 264.506,131.661 248.5,148.5C 244.369,152.13 240.369,155.963 236.5,160C 233.518,160.498 230.518,160.665 227.5,160.5C 250.506,136.661 274.006,113.328 298,90.5C 319.03,111.319 340.03,131.986 361,152.5C 363.001,155.331 365.167,157.997 367.5,160.5 Z"/></g>
<g><path style="opacity:1" fill="#4da6b0" d="M 160.5,139.5 C 162.153,139.66 163.486,140.326 164.5,141.5C 164.218,142.778 163.551,143.778 162.5,144.5C 159.5,144.5 156.5,144.5 153.5,144.5C 153.414,143.504 153.748,142.671 154.5,142C 156.852,141.76 158.852,140.927 160.5,139.5 Z"/></g>
<g><path style="opacity:1" fill="#c1d4d3" d="M 164.5,141.5 C 167.5,142.167 170.5,142.833 173.5,143.5C 170.038,144.482 166.371,144.815 162.5,144.5C 163.551,143.778 164.218,142.778 164.5,141.5 Z"/></g>
<g><path style="opacity:1" fill="#cfdbdb" d="M 436.5,139.5 C 435.365,141.213 433.698,141.88 431.5,141.5C 431.5,142.5 431.5,143.5 431.5,144.5C 426.968,144.818 422.634,144.485 418.5,143.5C 424.482,141.947 430.482,140.614 436.5,139.5 Z"/></g>
<g><path style="opacity:1" fill="#bed2d6" d="M 160.5,139.5 C 158.852,140.927 156.852,141.76 154.5,142C 153.748,142.671 153.414,143.504 153.5,144.5C 151.167,144.5 148.833,144.5 146.5,144.5C 150.516,141.165 155.183,139.498 160.5,139.5 Z"/></g>
<g><path style="opacity:1" fill="#478990" d="M 436.5,139.5 C 439.947,140.647 443.28,141.98 446.5,143.5C 441.695,144.487 436.695,144.821 431.5,144.5C 431.5,143.5 431.5,142.5 431.5,141.5C 433.698,141.88 435.365,141.213 436.5,139.5 Z"/></g>
<g><path style="opacity:1" fill="#1c2d32" d="M 418.5,143.5 C 422.634,144.485 426.968,144.818 431.5,144.5C 436.695,144.821 441.695,144.487 446.5,143.5C 447.043,143.56 447.376,143.893 447.5,144.5C 445.712,145.283 444.712,146.616 444.5,148.5C 442.958,147.699 441.292,147.366 439.5,147.5C 437.167,147.5 434.833,147.5 432.5,147.5C 432.167,147.5 431.833,147.5 431.5,147.5C 427.238,145.872 422.571,144.872 417.5,144.5C 417.624,143.893 417.957,143.56 418.5,143.5 Z"/></g>
<g><path style="opacity:1" fill="#2a3437" d="M 173.5,143.5 C 174.675,143.281 175.675,143.614 176.5,144.5C 168.855,145.331 161.188,145.831 153.5,146C 157.025,146.179 160.359,146.679 163.5,147.5C 163.167,147.5 162.833,147.5 162.5,147.5C 160.167,147.5 157.833,147.5 155.5,147.5C 151.693,146.774 149.026,148.107 147.5,151.5C 147.67,150.178 147.337,149.011 146.5,148C 150.223,146.961 150.223,145.794 146.5,144.5C 148.833,144.5 151.167,144.5 153.5,144.5C 156.5,144.5 159.5,144.5 162.5,144.5C 166.371,144.815 170.038,144.482 173.5,143.5 Z"/></g>
<g><path style="opacity:1" fill="#bbe2e6" d="M 162.5,147.5 C 162.833,147.5 163.167,147.5 163.5,147.5C 166.908,148.578 168.908,150.911 169.5,154.5C 166.882,152.548 164.548,150.215 162.5,147.5 Z"/></g>
<g><path style="opacity:1" fill="#2d91a3" d="M 432.5,147.5 C 434.833,147.5 437.167,147.5 439.5,147.5C 441.707,149.446 443.707,151.612 445.5,154C 446.437,154.692 447.103,154.525 447.5,153.5C 448.338,153.842 448.672,154.508 448.5,155.5C 441.833,155.5 435.167,155.5 428.5,155.5C 429.394,152.608 430.728,149.941 432.5,147.5 Z"/></g>
<g><path style="opacity:1" fill="#d5ecef" d="M 439.5,147.5 C 441.292,147.366 442.958,147.699 444.5,148.5C 445.925,149.922 446.925,151.589 447.5,153.5C 447.103,154.525 446.437,154.692 445.5,154C 443.707,151.612 441.707,149.446 439.5,147.5 Z"/></g>
<g><path style="opacity:1" fill="#e4f4f4" d="M 155.5,147.5 C 153.471,149.858 151.471,152.192 149.5,154.5C 146.752,154.598 146.086,153.598 147.5,151.5C 149.026,148.107 151.693,146.774 155.5,147.5 Z"/></g>
<g><path style="opacity:1" fill="#2e92a9" d="M 155.5,147.5 C 157.833,147.5 160.167,147.5 162.5,147.5C 164.548,150.215 166.882,152.548 169.5,154.5C 162.833,155.833 156.167,155.833 149.5,154.5C 151.471,152.192 153.471,149.858 155.5,147.5 Z"/></g>
<g><path style="opacity:1" fill="#d9e4e4" d="M 431.5,147.5 C 431.833,147.5 432.167,147.5 432.5,147.5C 430.728,149.941 429.394,152.608 428.5,155.5C 428.167,155.5 427.833,155.5 427.5,155.5C 424.002,155.435 423.502,154.101 426,151.5C 427.451,149.536 429.284,148.203 431.5,147.5 Z"/></g>
<g><path style="opacity:1" fill="#3e5982" d="M 319.5,154.5 C 315.696,151.62 311.362,149.787 306.5,149C 297.319,147.378 288.653,148.711 280.5,153C 277.603,155.41 274.603,157.577 271.5,159.5C 271.539,158.417 271.873,157.417 272.5,156.5C 274.737,155.868 276.403,154.535 277.5,152.5C 289.391,146.787 301.724,145.954 314.5,150C 316.398,151.417 318.064,152.917 319.5,154.5 Z"/></g>
<g><path style="opacity:1" fill="#0a3442" d="M 427.5,155.5 C 427.833,155.5 428.167,155.5 428.5,155.5C 435.167,155.5 441.833,155.5 448.5,155.5C 448.5,155.833 448.5,156.167 448.5,156.5C 448.167,156.5 447.833,156.5 447.5,156.5C 440.675,157.57 434.008,157.57 427.5,156.5C 427.5,156.167 427.5,155.833 427.5,155.5 Z"/></g>
<g><path style="opacity:1" fill="#c1c1bf" d="M 129.5,158.5 C 128.833,159.167 128.167,159.833 127.5,160.5C 117.828,160.666 108.161,160.5 98.5,160C 108.669,158.526 119.002,158.026 129.5,158.5 Z"/></g>
<g><path style="opacity:1" fill="#838582" d="M 129.5,158.5 C 134.833,158.5 140.167,158.5 145.5,158.5C 145.5,159.167 145.5,159.833 145.5,160.5C 139.5,160.5 133.5,160.5 127.5,160.5C 128.167,159.833 128.833,159.167 129.5,158.5 Z"/></g>
<g><path style="opacity:1" fill="#a0a5a5" d="M 447.5,156.5 C 447.833,156.5 448.167,156.5 448.5,156.5C 451.907,157.753 455.573,158.42 459.5,158.5C 468.829,157.704 478.162,157.537 487.5,158C 490.371,158.118 493.038,158.784 495.5,160C 480.17,160.5 464.837,160.667 449.5,160.5C 449.85,165.031 449.183,169.364 447.5,173.5C 446.709,171.691 446.709,169.691 447.5,167.5C 448.833,166.5 448.833,165.5 447.5,164.5C 447.5,161.833 447.5,159.167 447.5,156.5 Z"/></g>
<g><path style="opacity:1" fill="#1b5671" d="M 149.5,157.5 C 149.5,157.167 149.5,156.833 149.5,156.5C 156.532,156.17 163.532,156.503 170.5,157.5C 169.82,158.86 169.153,160.193 168.5,161.5C 166.302,161.12 164.635,161.787 163.5,163.5C 160.467,163.132 157.8,163.798 155.5,165.5C 155.5,162.833 155.5,160.167 155.5,157.5C 153.5,157.5 151.5,157.5 149.5,157.5 Z"/></g>
<g><path style="opacity:1" fill="#43597b" d="M 248.5,148.5 C 246.522,151.333 244.689,154.333 243,157.5C 241.933,158.191 240.766,158.691 239.5,159C 238.696,160.771 237.529,162.271 236,163.5C 235.251,164.635 235.417,165.635 236.5,166.5C 245.779,167.873 255.112,168.873 264.5,169.5C 264.389,170.117 264.056,170.617 263.5,171C 253.17,170.44 242.837,169.607 232.5,168.5C 232.297,166.61 232.963,165.11 234.5,164C 233.906,163.536 233.239,163.369 232.5,163.5C 233.263,162.732 234.263,162.232 235.5,162C 232.854,161.503 230.187,161.336 227.5,161.5C 227.5,161.167 227.5,160.833 227.5,160.5C 230.518,160.665 233.518,160.498 236.5,160C 240.369,155.963 244.369,152.13 248.5,148.5 Z"/></g>
<g><path style="opacity:1" fill="#319eb3" d="M 149.5,157.5 C 151.5,157.5 153.5,157.5 155.5,157.5C 155.5,160.167 155.5,162.833 155.5,165.5C 153.5,165.5 151.5,165.5 149.5,165.5C 149.5,162.833 149.5,160.167 149.5,157.5 Z"/></g>
<g><path style="opacity:1" fill="#e5f1f4" d="M 170.5,162.5 C 170.5,162.167 170.5,161.833 170.5,161.5C 178.5,161.5 186.5,161.5 194.5,161.5C 205.5,161.5 216.5,161.5 227.5,161.5C 230.187,161.336 232.854,161.503 235.5,162C 234.263,162.232 233.263,162.732 232.5,163.5C 217.587,165.816 202.587,166.15 187.5,164.5C 181.905,163.596 176.239,162.93 170.5,162.5 Z"/></g>
<g><path style="opacity:1" fill="#dfe8e9" d="M 367.5,161.5 C 378.167,161.5 388.833,161.5 399.5,161.5C 407.167,161.5 414.833,161.5 422.5,161.5C 422.5,161.833 422.5,162.167 422.5,162.5C 417.378,163.04 412.378,164.04 407.5,165.5C 395.022,165.31 382.355,165.31 369.5,165.5C 366.461,164.99 363.461,164.323 360.5,163.5C 360.082,162.778 359.416,162.278 358.5,162C 361.482,161.502 364.482,161.335 367.5,161.5 Z"/></g>
<g><path style="opacity:1" fill="#41a3b5" d="M 424.5,156.5 C 425.5,156.5 426.5,156.5 427.5,156.5C 434.008,157.57 440.675,157.57 447.5,156.5C 447.5,159.167 447.5,161.833 447.5,164.5C 444.5,164.5 441.5,164.5 438.5,164.5C 438.5,162.833 438.5,161.167 438.5,159.5C 433.833,159.5 429.167,159.5 424.5,159.5C 424.5,158.5 424.5,157.5 424.5,156.5 Z"/></g>
<g><path style="opacity:1" fill="#c3d7da" d="M 149.5,156.5 C 149.5,156.833 149.5,157.167 149.5,157.5C 149.5,160.167 149.5,162.833 149.5,165.5C 148.167,165.5 147.5,166.167 147.5,167.5C 148.345,170.543 149.345,173.543 150.5,176.5C 148.827,175.657 147.66,174.324 147,172.5C 145.844,168.582 145.344,164.582 145.5,160.5C 145.5,159.833 145.5,159.167 145.5,158.5C 146.183,156.824 147.517,156.157 149.5,156.5 Z"/></g>
<g><path style="opacity:1" fill="#8cc2cd" d="M 170.5,162.5 C 176.239,162.93 181.905,163.596 187.5,164.5C 188.167,165.167 188.833,165.833 189.5,166.5C 181.322,166.623 173.322,165.456 165.5,163C 167.134,162.506 168.801,162.34 170.5,162.5 Z"/></g>
<g><path style="opacity:1" fill="#0f414e" d="M 424.5,156.5 C 424.5,157.5 424.5,158.5 424.5,159.5C 429.167,159.5 433.833,159.5 438.5,159.5C 438.5,161.167 438.5,162.833 438.5,164.5C 441.5,164.5 444.5,164.5 447.5,164.5C 448.833,165.5 448.833,166.5 447.5,167.5C 443.881,166.756 440.215,166.423 436.5,166.5C 433.713,165.523 430.713,165.19 427.5,165.5C 427.833,164.833 428.167,164.167 428.5,163.5C 426.735,162.539 424.735,162.205 422.5,162.5C 422.5,162.167 422.5,161.833 422.5,161.5C 423.167,159.833 423.833,158.167 424.5,156.5 Z"/></g>
<g><path style="opacity:1" fill="#081d28" d="M 163.5,163.5 C 167.837,165.386 172.17,167.053 176.5,168.5C 173.934,168.656 171.434,168.322 169,167.5C 167.316,167.683 167.15,168.35 168.5,169.5C 163.78,168.113 158.946,167.113 154,166.5C 151.784,166.653 149.617,166.986 147.5,167.5C 147.5,166.167 148.167,165.5 149.5,165.5C 151.5,165.5 153.5,165.5 155.5,165.5C 157.8,163.798 160.467,163.132 163.5,163.5 Z"/></g>
<g><path style="opacity:1" fill="#2b3131" d="M 407.5,165.5 C 401.154,166.058 394.821,166.724 388.5,167.5C 382.167,166.833 375.833,166.167 369.5,165.5C 382.355,165.31 395.022,165.31 407.5,165.5 Z"/></g>
<g><path style="opacity:1" fill="#b8dfe4" d="M 189.5,166.5 C 213.222,169.675 236.889,173.175 260.5,177C 261.056,177.383 261.389,177.883 261.5,178.5C 243.431,176.544 225.431,174.044 207.5,171C 201.23,170.052 195.23,168.552 189.5,166.5 Z"/></g>
<g><path style="opacity:1" fill="#405e88" d="M 341.5,143.5 C 342.239,143.369 342.906,143.536 343.5,144C 348.609,149.093 353.609,154.427 358.5,160C 361.482,160.498 364.482,160.665 367.5,160.5C 367.5,160.833 367.5,161.167 367.5,161.5C 364.482,161.335 361.482,161.502 358.5,162C 359.416,162.278 360.082,162.778 360.5,163.5C 360.178,164.858 360.178,166.525 360.5,168.5C 351.764,168.9 343.097,169.9 334.5,171.5C 332.825,171.132 331.825,170.132 331.5,168.5C 337.616,168.824 343.616,168.157 349.5,166.5C 351.782,167.223 354.116,167.557 356.5,167.5C 356.664,164.813 356.497,162.146 356,159.5C 354.915,160.293 353.748,160.96 352.5,161.5C 351.865,154.697 348.365,150.03 342,147.5C 341.51,146.207 341.343,144.873 341.5,143.5 Z"/></g>
<g><path style="opacity:1" fill="#318d96" d="M 428.5,163.5 C 428.167,164.167 427.833,164.833 427.5,165.5C 420.382,166.696 413.382,168.363 406.5,170.5C 400.406,171.524 394.406,172.858 388.5,174.5C 388.082,173.778 387.416,173.278 386.5,173C 389.167,172.333 389.167,171.667 386.5,171C 389.036,170.814 391.369,170.314 393.5,169.5C 405.093,167.262 416.76,165.262 428.5,163.5 Z"/></g>
<g><path style="opacity:1" fill="#b4dbdf" d="M 422.5,162.5 C 424.735,162.205 426.735,162.539 428.5,163.5C 416.76,165.262 405.093,167.262 393.5,169.5C 373.784,172.175 354.118,175.175 334.5,178.5C 335.23,176.955 336.563,176.122 338.5,176C 355.278,173.675 371.945,170.842 388.5,167.5C 394.821,166.724 401.154,166.058 407.5,165.5C 412.378,164.04 417.378,163.04 422.5,162.5 Z"/></g>
<g><path style="opacity:1" fill="#b0dcde" d="M 168.5,170.5 C 168.25,172.674 167.25,174.341 165.5,175.5C 165.063,173.405 166.063,171.738 168.5,170.5 Z"/></g>
<g><path style="opacity:1" fill="#2f97a6" d="M 168.5,161.5 C 169.167,161.5 169.833,161.5 170.5,161.5C 170.5,161.833 170.5,162.167 170.5,162.5C 168.801,162.34 167.134,162.506 165.5,163C 173.322,165.456 181.322,166.623 189.5,166.5C 195.23,168.552 201.23,170.052 207.5,171C 225.431,174.044 243.431,176.544 261.5,178.5C 260.554,181.672 259.221,184.672 257.5,187.5C 255.382,186.054 253.049,185.387 250.5,185.5C 244.656,183.942 238.822,182.275 233,180.5C 232.235,180.57 231.735,180.903 231.5,181.5C 214.26,176.753 196.927,172.419 179.5,168.5C 178.5,168.5 177.5,168.5 176.5,168.5C 172.17,167.053 167.837,165.386 163.5,163.5C 164.635,161.787 166.302,161.12 168.5,161.5 Z"/></g>
<g><path style="opacity:1" fill="#2d98a9" d="M 168.5,169.5 C 168.5,169.833 168.5,170.167 168.5,170.5C 166.063,171.738 165.063,173.405 165.5,175.5C 164.942,176.79 163.942,177.623 162.5,178C 158.833,178.667 155.167,178.667 151.5,178C 150.944,177.617 150.611,177.117 150.5,176.5C 149.345,173.543 148.345,170.543 147.5,167.5C 149.617,166.986 151.784,166.653 154,166.5C 158.946,167.113 163.78,168.113 168.5,169.5 Z"/></g>
<g><path style="opacity:1" fill="#32a0b5" d="M 436.5,166.5 C 440.215,166.423 443.881,166.756 447.5,167.5C 446.709,169.691 446.709,171.691 447.5,173.5C 446.375,175.129 445.041,176.629 443.5,178C 436.91,179.852 431.41,178.352 427,173.5C 426.51,172.207 426.343,170.873 426.5,169.5C 429.968,168.899 433.301,167.899 436.5,166.5 Z"/></g>
<g><path style="opacity:1" fill="#33a4b5" d="M 393.5,169.5 C 391.369,170.314 389.036,170.814 386.5,171C 389.167,171.667 389.167,172.333 386.5,173C 387.416,173.278 388.082,173.778 388.5,174.5C 381.519,176.329 374.519,177.995 367.5,179.5C 368.263,178.732 369.263,178.232 370.5,178C 367.793,177.672 365.126,178.005 362.5,179C 356.167,180.572 350.167,182.738 344.5,185.5C 341.801,185.466 339.301,186.133 337,187.5C 335.846,184.614 335.013,181.614 334.5,178.5C 354.118,175.175 373.784,172.175 393.5,169.5 Z"/></g>
<g><path style="opacity:1" fill="#080c10" d="M 319.5,154.5 C 323.822,158.827 327.822,163.494 331.5,168.5C 331.825,170.132 332.825,171.132 334.5,171.5C 343.097,169.9 351.764,168.9 360.5,168.5C 360.178,166.525 360.178,164.858 360.5,163.5C 363.461,164.323 366.461,164.99 369.5,165.5C 375.833,166.167 382.167,166.833 388.5,167.5C 371.945,170.842 355.278,173.675 338.5,176C 336.563,176.122 335.23,176.955 334.5,178.5C 335.013,181.614 335.846,184.614 337,187.5C 339.301,186.133 341.801,185.466 344.5,185.5C 342.402,186.935 340.069,188.102 337.5,189C 336.304,189.654 336.304,190.154 337.5,190.5C 342.038,188.432 346.705,186.765 351.5,185.5C 354.397,184.871 357.064,183.871 359.5,182.5C 361.403,182.204 363.07,181.537 364.5,180.5C 365.791,180.737 366.791,180.404 367.5,179.5C 374.519,177.995 381.519,176.329 388.5,174.5C 394.406,172.858 400.406,171.524 406.5,170.5C 406.238,172.564 405.071,173.897 403,174.5C 402.833,175.5 402.667,176.5 402.5,177.5C 402.818,191.376 402.818,205.042 402.5,218.5C 401.833,218.5 401.167,218.5 400.5,218.5C 400.833,204.484 400.499,190.484 399.5,176.5C 398.893,176.624 398.56,176.957 398.5,177.5C 393.671,178.22 389.004,179.554 384.5,181.5C 383.571,182.689 383.238,184.022 383.5,185.5C 383.5,197.167 383.5,208.833 383.5,220.5C 381.421,220.971 379.421,221.637 377.5,222.5C 377.832,209.483 377.499,196.483 376.5,183.5C 373.399,184.857 370.399,186.19 367.5,187.5C 357.525,189.279 348.358,192.945 340,198.5C 339.5,212.163 339.333,225.829 339.5,239.5C 340.5,239.5 341.5,239.5 342.5,239.5C 342.5,239.833 342.5,240.167 342.5,240.5C 354.322,241.495 366.322,241.828 378.5,241.5C 378.5,236.167 378.5,230.833 378.5,225.5C 380.5,225.5 382.5,225.5 384.5,225.5C 384.5,230.5 384.5,235.5 384.5,240.5C 389.5,240.5 394.5,240.5 399.5,240.5C 399.5,235.5 399.5,230.5 399.5,225.5C 399.5,225.167 399.5,224.833 399.5,224.5C 413.5,224.5 427.5,224.5 441.5,224.5C 442.5,224.5 443.5,224.5 444.5,224.5C 446.199,224.34 447.866,224.506 449.5,225C 448.584,225.278 447.918,225.778 447.5,226.5C 445.265,226.205 443.265,226.539 441.5,227.5C 438.835,229.835 437.502,232.835 437.5,236.5C 438.5,236.5 439.5,236.5 440.5,236.5C 439.167,237.167 437.833,237.833 436.5,238.5C 436.5,239.5 436.5,240.5 436.5,241.5C 436.5,241.833 436.5,242.167 436.5,242.5C 435.942,243.79 434.942,244.623 433.5,245C 403.502,245.5 373.502,245.667 343.5,245.5C 337.291,245.484 333.457,242.484 332,236.5C 331.517,237.448 331.351,238.448 331.5,239.5C 329.779,246.253 329.112,253.253 329.5,260.5C 329.5,263.167 329.5,265.833 329.5,268.5C 347.816,265.392 366.149,262.392 384.5,259.5C 385.598,260.397 385.598,261.23 384.5,262C 389.661,261.573 394.661,261.74 399.5,262.5C 384.459,265.008 369.459,267.841 354.5,271C 347.564,272.377 342.064,275.877 338,281.5C 334.938,287.942 332.104,294.442 329.5,301C 333.027,305.905 335.194,311.405 336,317.5C 336.77,318.598 337.603,318.598 338.5,317.5C 337.545,319.71 336.045,320.043 334,318.5C 333.925,312.941 332.258,307.941 329,303.5C 328.667,303.833 328.333,304.167 328,304.5C 325.985,303.303 324.151,301.97 322.5,300.5C 326.38,292.411 330.38,284.244 334.5,276C 334.167,275.833 333.833,275.667 333.5,275.5C 332.52,276.981 331.353,278.315 330,279.5C 327.375,285.893 324.875,292.227 322.5,298.5C 322.5,297.5 322.5,296.5 322.5,295.5C 321.5,295.5 320.5,295.5 319.5,295.5C 322.129,287.368 322.962,279.035 322,270.5C 321.484,267.966 320.317,265.8 318.5,264C 311.191,265.791 303.691,266.958 296,267.5C 289.394,267.432 283.061,266.098 277,263.5C 274.812,263.354 273.479,264.354 273,266.5C 270.55,278.07 271.384,289.403 275.5,300.5C 274.206,301.29 273.039,302.29 272,303.5C 271.487,302.473 270.987,301.473 270.5,300.5C 271.043,300.44 271.376,300.107 271.5,299.5C 268.975,292.375 266.142,285.375 263,278.5C 262.189,277.04 261.355,276.707 260.5,277.5C 263.628,283.221 265.961,289.221 267.5,295.5C 265.903,294.263 264.737,292.596 264,290.5C 263.13,291.108 262.63,291.941 262.5,293C 263.148,294.44 263.481,295.94 263.5,297.5C 260.782,290.235 257.115,283.402 252.5,277C 246.746,273.122 240.413,270.956 233.5,270.5C 220.817,266.882 207.817,264.215 194.5,262.5C 194.5,274.833 194.5,287.167 194.5,299.5C 193.669,287.34 193.169,275.007 193,262.5C 191.635,261.407 191.301,260.074 192,258.5C 196.186,260.012 200.853,261.346 206,262.5C 206.5,262.167 207,261.833 207.5,261.5C 206.007,260.859 205.007,259.859 204.5,258.5C 221.063,261.594 237.73,264.26 254.5,266.5C 254.842,267.338 255.508,267.672 256.5,267.5C 258.92,267.292 261.253,267.626 263.5,268.5C 264.474,266.257 264.808,263.924 264.5,261.5C 264.553,253.135 264.053,244.802 263,236.5C 262.617,237.056 262.117,237.389 261.5,237.5C 261.574,235.589 262.574,234.422 264.5,234C 263.346,233.086 263.513,232.253 265,231.5C 265.667,227.167 265.667,222.833 265,218.5C 263.108,219.617 262.275,221.284 262.5,223.5C 260.856,223.714 259.356,223.38 258,222.5C 257.749,224.433 257.249,226.266 256.5,228C 258.422,229.46 259.089,231.127 258.5,233C 256.606,234.079 256.273,235.413 257.5,237C 256.956,237.717 256.289,238.217 255.5,238.5C 255.5,228.167 255.5,217.833 255.5,207.5C 255.5,204.833 255.5,202.167 255.5,199.5C 253.073,197.442 250.407,195.609 247.5,194C 237.833,190.5 228.167,187 218.5,183.5C 217.501,196.483 217.168,209.483 217.5,222.5C 215.102,222.741 213.102,222.074 211.5,220.5C 211.667,207.496 211.5,194.496 211,181.5C 205.576,179.936 200.076,178.603 194.5,177.5C 194.5,176.5 194.5,175.5 194.5,174.5C 188.671,174.282 183.671,172.282 179.5,168.5C 196.927,172.419 214.26,176.753 231.5,181.5C 240.282,184.094 248.949,187.094 257.5,190.5C 257.833,190.167 258.167,189.833 258.5,189.5C 255.75,188.125 253.084,186.792 250.5,185.5C 253.049,185.387 255.382,186.054 257.5,187.5C 259.221,184.672 260.554,181.672 261.5,178.5C 261.389,177.883 261.056,177.383 260.5,177C 236.889,173.175 213.222,169.675 189.5,166.5C 188.833,165.833 188.167,165.167 187.5,164.5C 202.587,166.15 217.587,165.816 232.5,163.5C 233.239,163.369 233.906,163.536 234.5,164C 232.963,165.11 232.297,166.61 232.5,168.5C 242.837,169.607 253.17,170.44 263.5,171C 264.056,170.617 264.389,170.117 264.5,169.5C 266.859,166.149 269.192,162.815 271.5,159.5C 274.603,157.577 277.603,155.41 280.5,153C 288.653,148.711 297.319,147.378 306.5,149C 311.362,149.787 315.696,151.62 319.5,154.5 Z"/></g>
<g><path style="opacity:1" fill="#c2cbcc" d="M 351.5,185.5 C 346.705,186.765 342.038,188.432 337.5,190.5C 336.304,190.154 336.304,189.654 337.5,189C 340.069,188.102 342.402,186.935 344.5,185.5C 347.005,184.583 349.338,184.583 351.5,185.5 Z"/></g>
<g><path style="opacity:1" fill="#222b37" d="M 398.5,177.5 C 398.56,176.957 398.893,176.624 399.5,176.5C 400.499,190.484 400.833,204.484 400.5,218.5C 400.167,218.5 399.833,218.5 399.5,218.5C 399.5,218.167 399.5,217.833 399.5,217.5C 399.829,203.99 399.496,190.656 398.5,177.5 Z"/></g>
<g><path style="opacity:1" fill="#b4cfd1" d="M 364.5,180.5 C 363.07,181.537 361.403,182.204 359.5,182.5C 358.761,182.631 358.094,182.464 357.5,182C 359.74,181.023 362.073,180.523 364.5,180.5 Z"/></g>
<g><path style="opacity:1" fill="#a8b9bd" d="M 231.5,181.5 C 231.735,180.903 232.235,180.57 233,180.5C 238.822,182.275 244.656,183.942 250.5,185.5C 253.084,186.792 255.75,188.125 258.5,189.5C 258.167,189.833 257.833,190.167 257.5,190.5C 248.949,187.094 240.282,184.094 231.5,181.5 Z"/></g>
<g><path style="opacity:1" fill="#46757d" d="M 367.5,179.5 C 366.791,180.404 365.791,180.737 364.5,180.5C 362.073,180.523 359.74,181.023 357.5,182C 358.094,182.464 358.761,182.631 359.5,182.5C 357.064,183.871 354.397,184.871 351.5,185.5C 349.338,184.583 347.005,184.583 344.5,185.5C 350.167,182.738 356.167,180.572 362.5,179C 365.126,178.005 367.793,177.672 370.5,178C 369.263,178.232 368.263,178.732 367.5,179.5 Z"/></g>
<g><path style="opacity:1" fill="#11a2bd" d="M 298.5,155.5 C 304.296,156.366 309.963,157.699 315.5,159.5C 327.943,170.153 334.276,183.819 334.5,200.5C 334.825,207.687 334.491,214.687 333.5,221.5C 327.614,205.306 315.947,196.64 298.5,195.5C 298.5,182.167 298.5,168.833 298.5,155.5 Z"/></g>
<g><path style="opacity:1" fill="#97d7e6" d="M 298.5,155.5 C 298.5,168.833 298.5,182.167 298.5,195.5C 288.445,195.518 279.445,198.518 271.5,204.5C 270.435,194.621 270.435,184.955 271.5,175.5C 277.091,164.207 286.091,157.54 298.5,155.5 Z"/></g>
<g><path style="opacity:1" fill="#c5e0e3" d="M 315.5,159.5 C 309.963,157.699 304.296,156.366 298.5,155.5C 286.091,157.54 277.091,164.207 271.5,175.5C 269.441,178.611 267.608,181.944 266,185.5C 263.842,192.897 262.009,200.23 260.5,207.5C 260.5,206.833 260.5,206.167 260.5,205.5C 260.269,186.678 267.269,171.178 281.5,159C 289.779,153.309 298.779,151.976 308.5,155C 311.239,156.026 313.572,157.526 315.5,159.5 Z"/></g>
<g><path style="opacity:1" fill="#3f587c" d="M 255.5,199.5 C 249.265,197.127 243.099,194.46 237,191.5C 231.469,189.909 225.969,188.243 220.5,186.5C 218.908,198.779 218.241,211.113 218.5,223.5C 217.833,223.5 217.5,223.167 217.5,222.5C 217.168,209.483 217.501,196.483 218.5,183.5C 228.167,187 237.833,190.5 247.5,194C 250.407,195.609 253.073,197.442 255.5,199.5 Z"/></g>
<g><path style="opacity:1" fill="#405982" d="M 194.5,177.5 C 200.076,178.603 205.576,179.936 211,181.5C 211.5,194.496 211.667,207.496 211.5,220.5C 208.627,220.198 205.961,219.531 203.5,218.5C 206.509,218.577 208.676,217.244 210,214.5C 210.5,203.839 210.667,193.172 210.5,182.5C 205.985,181.018 201.319,180.352 196.5,180.5C 196.618,192.85 196.285,205.183 195.5,217.5C 197.735,217.205 199.735,217.539 201.5,218.5C 199.167,218.5 196.833,218.5 194.5,218.5C 194.5,204.833 194.5,191.167 194.5,177.5 Z"/></g>
<g><path style="opacity:1" fill="#37619d" d="M 203.5,218.5 C 202.833,218.5 202.167,218.5 201.5,218.5C 199.735,217.539 197.735,217.205 195.5,217.5C 196.285,205.183 196.618,192.85 196.5,180.5C 201.319,180.352 205.985,181.018 210.5,182.5C 210.667,193.172 210.5,203.839 210,214.5C 208.676,217.244 206.509,218.577 203.5,218.5 Z"/></g>
<g><path style="opacity:1" fill="#3f5d8a" d="M 367.5,187.5 C 367.5,188.5 367.5,189.5 367.5,190.5C 364.603,190.319 361.77,190.652 359,191.5C 352.948,193.403 347.282,196.07 342,199.5C 341.187,212.908 341.353,226.242 342.5,239.5C 341.5,239.5 340.5,239.5 339.5,239.5C 339.333,225.829 339.5,212.163 340,198.5C 348.358,192.945 357.525,189.279 367.5,187.5 Z"/></g>
<g><path style="opacity:1" fill="#39629d" d="M 398.5,177.5 C 399.496,190.656 399.829,203.99 399.5,217.5C 394.807,217.46 390.141,217.127 385.5,216.5C 385.37,206.284 385.703,195.951 386.5,185.5C 385.5,185.5 384.5,185.5 383.5,185.5C 383.238,184.022 383.571,182.689 384.5,181.5C 389.004,179.554 393.671,178.22 398.5,177.5 Z"/></g>
<g><path style="opacity:1" fill="#3a619c" d="M 377.5,222.5 C 376.609,223.11 375.609,223.443 374.5,223.5C 373.957,223.56 373.624,223.893 373.5,224.5C 375.689,226.01 377.023,228.01 377.5,230.5C 377.5,233.833 377.5,237.167 377.5,240.5C 365.833,240.5 354.167,240.5 342.5,240.5C 342.5,240.167 342.5,239.833 342.5,239.5C 341.353,226.242 341.187,212.908 342,199.5C 347.282,196.07 352.948,193.403 359,191.5C 361.77,190.652 364.603,190.319 367.5,190.5C 367.5,189.5 367.5,188.5 367.5,187.5C 370.399,186.19 373.399,184.857 376.5,183.5C 377.499,196.483 377.832,209.483 377.5,222.5 Z"/></g>
<g><path style="opacity:1" fill="#23a1b4" d="M 271.5,175.5 C 270.435,184.955 270.435,194.621 271.5,204.5C 267.155,209.189 263.821,214.522 261.5,220.5C 260.515,216.366 260.182,212.032 260.5,207.5C 262.009,200.23 263.842,192.897 266,185.5C 267.608,181.944 269.441,178.611 271.5,175.5 Z"/></g>
<g><path style="opacity:1" fill="#14a4c0" d="M 306.5,200.5 C 316.555,203.056 323.722,209.056 328,218.5C 328.81,222.358 328.643,226.024 327.5,229.5C 327.665,226.15 327.498,222.817 327,219.5C 326.075,224.625 325.241,229.625 324.5,234.5C 322.806,240.084 320.973,245.751 319,251.5C 317.988,254.202 316.488,256.535 314.5,258.5C 307.004,263.315 299.004,264.648 290.5,262.5C 291.833,262.5 293.167,262.5 294.5,262.5C 295.022,249.727 294.189,237.06 292,224.5C 291.072,220.702 289.572,217.202 287.5,214C 285.613,213.837 284.113,214.671 283,216.5C 282.833,216.167 282.667,215.833 282.5,215.5C 285.814,210.854 289.481,206.521 293.5,202.5C 297.973,201.949 302.307,201.283 306.5,200.5 Z"/></g>
<g><path style="opacity:1" fill="#ededed" d="M 29.5,194.5 C 58.7005,206.431 87.7005,218.931 116.5,232C 118.797,233.263 119.63,235.097 119,237.5C 90.2741,226.7 62.1074,214.533 34.5,201C 32.2101,199.223 30.5434,197.056 29.5,194.5 Z"/></g>
<g><path style="opacity:1" fill="#375479" d="M 383.5,185.5 C 384.5,185.5 385.5,185.5 386.5,185.5C 385.703,195.951 385.37,206.284 385.5,216.5C 390.141,217.127 394.807,217.46 399.5,217.5C 399.5,217.833 399.5,218.167 399.5,218.5C 393.972,218.069 388.639,218.736 383.5,220.5C 383.5,208.833 383.5,197.167 383.5,185.5 Z"/></g>
<g><path style="opacity:1" fill="#1f4d52" d="M 260.5,205.5 C 260.5,206.167 260.5,206.833 260.5,207.5C 260.182,212.032 260.515,216.366 261.5,220.5C 261.217,221.289 260.717,221.956 260,222.5C 259.182,216.651 259.348,210.985 260.5,205.5 Z"/></g>
<g><path style="opacity:1" fill="#39609c" d="M 255.5,199.5 C 255.5,202.167 255.5,204.833 255.5,207.5C 254.698,208.952 254.198,210.618 254,212.5C 253.667,219.833 253.333,227.167 253,234.5C 251.916,235.665 251.083,236.998 250.5,238.5C 240.851,239.665 231.184,239.832 221.5,239C 220.584,238.626 219.75,238.126 219,237.5C 217.988,232.925 218.488,228.592 220.5,224.5C 220.043,223.702 219.376,223.369 218.5,223.5C 218.241,211.113 218.908,198.779 220.5,186.5C 225.969,188.243 231.469,189.909 237,191.5C 243.099,194.46 249.265,197.127 255.5,199.5 Z"/></g>
<g><path style="opacity:1" fill="#cee0e2" d="M 306.5,200.5 C 302.307,201.283 297.973,201.949 293.5,202.5C 285.136,202.612 278.136,205.612 272.5,211.5C 271.502,220.475 271.168,229.475 271.5,238.5C 270.75,244.403 271.75,250.237 274.5,256C 274.333,256.5 274.167,257 274,257.5C 273.292,256.619 272.458,255.953 271.5,255.5C 266.269,241.672 265.436,227.672 269,213.5C 278.729,201.533 291.229,197.2 306.5,200.5 Z"/></g>
<g><path style="opacity:1" fill="#9ddcea" d="M 293.5,202.5 C 289.481,206.521 285.814,210.854 282.5,215.5C 282.667,215.833 282.833,216.167 283,216.5C 284.113,214.671 285.613,213.837 287.5,214C 289.572,217.202 291.072,220.702 292,224.5C 294.189,237.06 295.022,249.727 294.5,262.5C 293.167,262.5 291.833,262.5 290.5,262.5C 286.327,262.333 282.66,261 279.5,258.5C 275.085,252.601 272.419,245.934 271.5,238.5C 271.168,229.475 271.502,220.475 272.5,211.5C 278.136,205.612 285.136,202.612 293.5,202.5 Z"/></g>
<g><path style="opacity:1" fill="#073e4e" d="M 334.5,200.5 C 335.819,207.677 335.819,215.01 334.5,222.5C 333.893,222.376 333.56,222.043 333.5,221.5C 334.491,214.687 334.825,207.687 334.5,200.5 Z"/></g>
<g><path style="opacity:1" fill="#cee6df" d="M 139.5,217.5 C 139.938,217.435 140.272,217.601 140.5,218C 139.167,219.333 137.833,220.667 136.5,222C 134.613,222.78 132.946,222.613 131.5,221.5C 133.883,219.642 136.55,218.308 139.5,217.5 Z"/></g>
<g><path style="opacity:1" fill="#e8ebec" d="M 194.5,218.5 C 196.833,218.5 199.167,218.5 201.5,218.5C 202.167,218.5 202.833,218.5 203.5,218.5C 205.961,219.531 208.627,220.198 211.5,220.5C 213.102,222.074 215.102,222.741 217.5,222.5C 217.5,223.167 217.833,223.5 218.5,223.5C 210.684,224.492 202.684,224.826 194.5,224.5C 177.325,224.83 160.325,224.497 143.5,223.5C 144.209,222.596 145.209,222.263 146.5,222.5C 162.472,220.837 178.472,219.504 194.5,218.5 Z"/></g>
<g><path style="opacity:1" fill="#a9c9cc" d="M 461.5,221.5 C 461.265,222.097 460.765,222.43 460,222.5C 457.558,221.03 455.058,219.696 452.5,218.5C 450.643,219.267 448.976,220.267 447.5,221.5C 446.022,221.762 444.689,221.429 443.5,220.5C 449.627,215.508 455.627,215.841 461.5,221.5 Z"/></g>
<g><path style="opacity:1" fill="#eeeeee" d="M 560.5,194.5 C 561.675,194.281 562.675,194.614 563.5,195.5C 562.5,196.833 561.5,198.167 560.5,199.5C 532.349,214.249 503.349,226.749 473.5,237C 475.557,233.277 478.557,230.61 482.5,229C 508.726,217.768 534.726,206.268 560.5,194.5 Z"/></g>
<g><path style="opacity:1" fill="#44909c" d="M 139.5,217.5 C 143.528,216.303 147.194,217.303 150.5,220.5C 149.051,221.172 147.718,221.839 146.5,222.5C 145.209,222.263 144.209,222.596 143.5,223.5C 138.821,223.666 134.155,223.499 129.5,223C 130.044,222.283 130.711,221.783 131.5,221.5C 132.946,222.613 134.613,222.78 136.5,222C 137.833,220.667 139.167,219.333 140.5,218C 140.272,217.601 139.938,217.435 139.5,217.5 Z"/></g>
<g><path style="opacity:1" fill="#eaeff0" d="M 399.5,218.5 C 399.833,218.5 400.167,218.5 400.5,218.5C 401.167,218.5 401.833,218.5 402.5,218.5C 416.12,220.218 429.787,221.552 443.5,222.5C 442.833,223.167 442.167,223.833 441.5,224.5C 427.5,224.5 413.5,224.5 399.5,224.5C 390.983,224.826 382.65,224.493 374.5,223.5C 375.609,223.443 376.609,223.11 377.5,222.5C 379.421,221.637 381.421,220.971 383.5,220.5C 388.639,218.736 393.972,218.069 399.5,218.5 Z"/></g>
<g><path style="opacity:1" fill="#52929a" d="M 461.5,221.5 C 462.043,221.56 462.376,221.893 462.5,222.5C 461.311,223.429 459.978,223.762 458.5,223.5C 453.637,223.181 448.97,223.514 444.5,224.5C 443.5,224.5 442.5,224.5 441.5,224.5C 442.167,223.833 442.833,223.167 443.5,222.5C 445.099,222.768 446.432,222.434 447.5,221.5C 448.976,220.267 450.643,219.267 452.5,218.5C 455.058,219.696 457.558,221.03 460,222.5C 460.765,222.43 461.265,222.097 461.5,221.5 Z"/></g>
<g><path style="opacity:1" fill="#112630" d="M 444.5,224.5 C 448.97,223.514 453.637,223.181 458.5,223.5C 458.782,224.778 459.449,225.778 460.5,226.5C 460.167,226.5 459.833,226.5 459.5,226.5C 455.5,226.5 451.5,226.5 447.5,226.5C 447.918,225.778 448.584,225.278 449.5,225C 447.866,224.506 446.199,224.34 444.5,224.5 Z"/></g>
<g><path style="opacity:1" fill="#667c96" d="M 374.5,223.5 C 382.65,224.493 390.983,224.826 399.5,224.5C 399.5,224.833 399.5,225.167 399.5,225.5C 394.5,225.5 389.5,225.5 384.5,225.5C 382.5,225.5 380.5,225.5 378.5,225.5C 377.549,226.919 377.216,228.585 377.5,230.5C 377.023,228.01 375.689,226.01 373.5,224.5C 373.624,223.893 373.957,223.56 374.5,223.5 Z"/></g>
<g><path style="opacity:1" fill="#3b6095" d="M 384.5,225.5 C 389.5,225.5 394.5,225.5 399.5,225.5C 399.5,230.5 399.5,235.5 399.5,240.5C 394.5,240.5 389.5,240.5 384.5,240.5C 384.5,235.5 384.5,230.5 384.5,225.5 Z"/></g>
<g><path style="opacity:1" fill="#2d98ae" d="M 441.5,227.5 C 443.265,226.539 445.265,226.205 447.5,226.5C 451.5,226.5 455.5,226.5 459.5,226.5C 462.022,229.369 463.689,232.703 464.5,236.5C 457.167,236.5 449.833,236.5 442.5,236.5C 442.884,233.231 444.218,230.397 446.5,228C 444.866,227.506 443.199,227.34 441.5,227.5 Z"/></g>
<g><path style="opacity:1" fill="#e8f0f1" d="M 134.5,226.5 C 132.129,229.554 130.129,232.887 128.5,236.5C 127.167,236.5 125.833,236.5 124.5,236.5C 125.092,233.309 126.259,230.309 128,227.5C 130.041,226.577 132.208,226.244 134.5,226.5 Z"/></g>
<g><path style="opacity:1" fill="#239cb4" d="M 134.5,226.5 C 138.167,226.5 141.833,226.5 145.5,226.5C 148.637,229.299 150.971,232.632 152.5,236.5C 145.167,236.5 137.833,236.5 130.5,236.5C 129.833,236.5 129.167,236.5 128.5,236.5C 130.129,232.887 132.129,229.554 134.5,226.5 Z"/></g>
<g><path style="opacity:1" fill="#d6ebeb" d="M 145.5,226.5 C 150.899,226.564 154.232,229.23 155.5,234.5C 155.253,235.713 154.586,236.38 153.5,236.5C 153.167,236.5 152.833,236.5 152.5,236.5C 150.971,232.632 148.637,229.299 145.5,226.5 Z"/></g>
<g><path style="opacity:1" fill="#e3eded" d="M 441.5,227.5 C 443.199,227.34 444.866,227.506 446.5,228C 444.218,230.397 442.884,233.231 442.5,236.5C 441.833,236.5 441.167,236.5 440.5,236.5C 439.5,236.5 438.5,236.5 437.5,236.5C 437.502,232.835 438.835,229.835 441.5,227.5 Z"/></g>
<g><path style="opacity:1" fill="#e1eff0" d="M 459.5,226.5 C 459.833,226.5 460.167,226.5 460.5,226.5C 462.144,226.286 463.644,226.62 465,227.5C 466.741,230.309 467.908,233.309 468.5,236.5C 467.167,236.5 465.833,236.5 464.5,236.5C 463.689,232.703 462.022,229.369 459.5,226.5 Z"/></g>
<g><path style="opacity:1" fill="#072e45" d="M 130.5,236.5 C 137.833,236.5 145.167,236.5 152.5,236.5C 152.833,236.5 153.167,236.5 153.5,236.5C 154.167,237.167 154.833,237.833 155.5,238.5C 146.833,238.5 138.167,238.5 129.5,238.5C 127.833,238.5 126.167,238.5 124.5,238.5C 126.5,237.833 128.5,237.167 130.5,236.5 Z"/></g>
<g><path style="opacity:1" fill="#093347" d="M 440.5,236.5 C 441.167,236.5 441.833,236.5 442.5,236.5C 449.833,236.5 457.167,236.5 464.5,236.5C 465.833,236.5 467.167,236.5 468.5,236.5C 468.167,237.167 467.833,237.833 467.5,238.5C 459.167,238.5 450.833,238.5 442.5,238.5C 440.5,238.5 438.5,238.5 436.5,238.5C 437.833,237.833 439.167,237.167 440.5,236.5 Z"/></g>
<g><path style="opacity:1" fill="#3e5a81" d="M 255.5,207.5 C 255.5,217.833 255.5,228.167 255.5,238.5C 253.233,239.423 250.9,240.256 248.5,241C 237.839,241.5 227.172,241.667 216.5,241.5C 216.5,236.167 216.5,230.833 216.5,225.5C 214.5,225.5 212.5,225.5 210.5,225.5C 210.5,230.833 210.5,236.167 210.5,241.5C 205.167,241.5 199.833,241.5 194.5,241.5C 194.5,235.833 194.5,230.167 194.5,224.5C 202.684,224.826 210.684,224.492 218.5,223.5C 219.376,223.369 220.043,223.702 220.5,224.5C 218.488,228.592 217.988,232.925 219,237.5C 219.75,238.126 220.584,238.626 221.5,239C 231.184,239.832 240.851,239.665 250.5,238.5C 251.083,236.998 251.916,235.665 253,234.5C 253.333,227.167 253.667,219.833 254,212.5C 254.198,210.618 254.698,208.952 255.5,207.5 Z"/></g>
<g><path style="opacity:1" fill="#376099" d="M 196.5,226.5 C 200.226,226.177 203.893,226.511 207.5,227.5C 207.931,228.293 208.265,229.127 208.5,230C 208.184,233.029 207.85,236.029 207.5,239C 203.848,239.499 200.182,239.665 196.5,239.5C 196.5,235.167 196.5,230.833 196.5,226.5 Z"/></g>
<g><path style="opacity:1" fill="#246e99" d="M 129.5,238.5 C 138.167,238.5 146.833,238.5 155.5,238.5C 157.104,239.287 157.771,240.62 157.5,242.5C 155.833,242.5 154.167,242.5 152.5,242.5C 148.167,242.5 143.833,242.5 139.5,242.5C 139.5,243.833 139.5,245.167 139.5,246.5C 138.584,246.982 137.584,247.315 136.5,247.5C 133.978,246.238 131.311,245.571 128.5,245.5C 128.167,244.833 127.833,244.167 127.5,243.5C 128.5,243.5 129.5,243.5 130.5,243.5C 130.634,241.708 130.301,240.042 129.5,238.5 Z"/></g>
<g><path style="opacity:1" fill="#233552" d="M 378.5,225.5 C 378.5,230.833 378.5,236.167 378.5,241.5C 366.322,241.828 354.322,241.495 342.5,240.5C 354.167,240.5 365.833,240.5 377.5,240.5C 377.5,237.167 377.5,233.833 377.5,230.5C 377.216,228.585 377.549,226.919 378.5,225.5 Z"/></g>
<g><path style="opacity:1" fill="#cbebef" d="M 436.5,238.5 C 438.5,238.5 440.5,238.5 442.5,238.5C 442.5,239.5 442.5,240.5 442.5,241.5C 440.5,241.5 438.5,241.5 436.5,241.5C 436.5,240.5 436.5,239.5 436.5,238.5 Z"/></g>
<g><path style="opacity:1" fill="#d3e4ec" d="M 124.5,238.5 C 126.167,238.5 127.833,238.5 129.5,238.5C 130.301,240.042 130.634,241.708 130.5,243.5C 129.5,243.5 128.5,243.5 127.5,243.5C 126.5,243.5 125.5,243.5 124.5,243.5C 124.5,241.833 124.5,240.167 124.5,238.5 Z"/></g>
<g><path style="opacity:1" fill="#4682a5" d="M 442.5,238.5 C 450.833,238.5 459.167,238.5 467.5,238.5C 469.176,239.183 469.843,240.517 469.5,242.5C 467.621,243.341 465.621,243.675 463.5,243.5C 463.5,242.167 463.5,240.833 463.5,239.5C 456.257,241.14 448.924,242.14 441.5,242.5C 439.833,242.5 438.167,242.5 436.5,242.5C 436.5,242.167 436.5,241.833 436.5,241.5C 438.5,241.5 440.5,241.5 442.5,241.5C 442.5,240.5 442.5,239.5 442.5,238.5 Z"/></g>
<g><path style="opacity:1" fill="#245c8e" d="M 469.5,242.5 C 469.5,243.167 469.5,243.833 469.5,244.5C 467.901,244.232 466.568,244.566 465.5,245.5C 462.423,245.347 459.589,246.014 457,247.5C 454.538,246.841 452.038,246.507 449.5,246.5C 446.431,246.015 443.764,244.681 441.5,242.5C 448.924,242.14 456.257,241.14 463.5,239.5C 463.5,240.833 463.5,242.167 463.5,243.5C 465.621,243.675 467.621,243.341 469.5,242.5 Z"/></g>
<g><path style="opacity:1" fill="#323232" d="M 480.5,244.5 C 495.339,243.174 510.339,243.174 525.5,244.5C 524.675,245.386 523.675,245.719 522.5,245.5C 509.01,244.504 495.344,244.171 481.5,244.5C 481.167,244.5 480.833,244.5 480.5,244.5 Z"/></g>
<g><path style="opacity:1" fill="#dfdfdf" d="M 117.5,244.5 C 114.167,245.167 110.833,245.833 107.5,246.5C 94.7722,246.92 82.1056,246.42 69.5,245C 85.4965,244.5 101.497,244.333 117.5,244.5 Z"/></g>
<g><path style="opacity:1" fill="#435661" d="M 436.5,242.5 C 438.167,242.5 439.833,242.5 441.5,242.5C 443.764,244.681 446.431,246.015 449.5,246.5C 447.435,246.517 445.435,246.85 443.5,247.5C 410.167,246.833 376.833,246.167 343.5,245.5C 373.502,245.667 403.502,245.5 433.5,245C 434.942,244.623 435.942,243.79 436.5,242.5 Z"/></g>
<g><path style="opacity:1" fill="#d9d9d9" d="M 481.5,244.5 C 495.344,244.171 509.01,244.504 522.5,245.5C 510.926,247.731 499.26,248.064 487.5,246.5C 485.5,245.833 483.5,245.167 481.5,244.5 Z"/></g>
<g><path style="opacity:1" fill="#8d8d8e" d="M 124.5,243.5 C 125.5,243.5 126.5,243.5 127.5,243.5C 127.833,244.167 128.167,244.833 128.5,245.5C 121.504,245.894 114.504,246.227 107.5,246.5C 110.833,245.833 114.167,245.167 117.5,244.5C 120.059,244.802 122.393,244.468 124.5,243.5 Z"/></g>
<g><path style="opacity:1" fill="#1e415c" d="M 152.5,242.5 C 151.737,243.268 150.737,243.768 149.5,244C 150.416,244.278 151.082,244.778 151.5,245.5C 150.448,245.351 149.448,245.517 148.5,246C 149.381,246.708 150.047,247.542 150.5,248.5C 146.998,247.083 143.331,246.416 139.5,246.5C 139.5,245.167 139.5,243.833 139.5,242.5C 143.833,242.5 148.167,242.5 152.5,242.5 Z"/></g>
<g><path style="opacity:1" fill="#76858b" d="M 151.5,245.5 C 184.167,245.5 216.833,245.5 249.5,245.5C 220.005,246.498 190.338,246.831 160.5,246.5C 159.127,246.343 157.793,246.51 156.5,247C 157.167,247.333 157.833,247.667 158.5,248C 157.263,248.232 156.263,248.732 155.5,249.5C 153.784,249.371 152.117,249.038 150.5,248.5C 150.047,247.542 149.381,246.708 148.5,246C 149.448,245.517 150.448,245.351 151.5,245.5 Z"/></g>
<g><path style="opacity:1" fill="#9c9c9c" d="M 465.5,245.5 C 466.568,244.566 467.901,244.232 469.5,244.5C 473.167,244.5 476.833,244.5 480.5,244.5C 480.833,244.5 481.167,244.5 481.5,244.5C 483.5,245.167 485.5,245.833 487.5,246.5C 480.124,246.726 472.791,246.392 465.5,245.5 Z"/></g>
<g><path style="opacity:1" fill="#d4f4f9" d="M 261.5,238.5 C 262.097,238.735 262.43,239.235 262.5,240C 260.428,244.757 256.761,247.257 251.5,247.5C 220.995,247.831 190.662,247.498 160.5,246.5C 190.338,246.831 220.005,246.498 249.5,245.5C 255.112,245.701 259.112,243.368 261.5,238.5 Z"/></g>
<g><path style="opacity:1" fill="#c8ecf2" d="M 343.5,245.5 C 376.833,246.167 410.167,246.833 443.5,247.5C 440.302,248.787 436.969,249.453 433.5,249.5C 430.587,248.759 427.587,248.259 424.5,248C 397.502,247.5 370.502,247.333 343.5,247.5C 342.167,247.5 340.833,247.5 339.5,247.5C 335.887,245.887 333.22,243.22 331.5,239.5C 331.351,238.448 331.517,237.448 332,236.5C 333.457,242.484 337.291,245.484 343.5,245.5 Z"/></g>
<g><path style="opacity:1" fill="#a1d7e3" d="M 160.5,246.5 C 190.662,247.498 220.995,247.831 251.5,247.5C 233.341,248.497 215.008,248.83 196.5,248.5C 185.531,249.54 174.531,250.206 163.5,250.5C 160.794,250.425 158.127,250.092 155.5,249.5C 156.263,248.732 157.263,248.232 158.5,248C 157.833,247.667 157.167,247.333 156.5,247C 157.793,246.51 159.127,246.343 160.5,246.5 Z"/></g>
<g><path style="opacity:1" fill="#9edce7" d="M 343.5,247.5 C 370.502,247.333 397.502,247.5 424.5,248C 427.587,248.259 430.587,248.759 433.5,249.5C 431.162,251.04 428.495,251.706 425.5,251.5C 421.131,250.366 416.631,249.7 412,249.5C 389.002,248.953 366.168,248.286 343.5,247.5 Z"/></g>
<g><path style="opacity:1" fill="#2f98a9" d="M 264.5,261.5 C 262.915,262.474 261.915,263.974 261.5,266C 259.618,266.198 257.952,266.698 256.5,267.5C 255.508,267.672 254.842,267.338 254.5,266.5C 250.12,264.998 245.12,263.664 239.5,262.5C 228.91,259.797 218.243,257.464 207.5,255.5C 216.864,256.338 226.197,257.505 235.5,259C 240.702,259.692 245.702,261.025 250.5,263C 253.833,263.667 257.167,263.667 260.5,263C 261.137,260.757 261.47,258.424 261.5,256C 261.419,253.375 260.752,251.041 259.5,249C 261.645,248.257 261.811,247.424 260,246.5C 258.274,246.946 256.774,247.779 255.5,249C 235.662,249.829 215.996,249.662 196.5,248.5C 215.008,248.83 233.341,248.497 251.5,247.5C 256.761,247.257 260.428,244.757 262.5,240C 262.43,239.235 262.097,238.735 261.5,238.5C 261.5,238.167 261.5,237.833 261.5,237.5C 262.117,237.389 262.617,237.056 263,236.5C 264.053,244.802 264.553,253.135 264.5,261.5 Z"/></g>
<g><path style="opacity:1" fill="#21abc4" d="M 207.5,255.5 C 201.762,255.377 196.096,254.71 190.5,253.5C 186.178,252.611 181.678,251.944 177,251.5C 175.615,251.514 174.449,251.848 173.5,252.5C 169.922,252.451 166.589,251.785 163.5,250.5C 174.531,250.206 185.531,249.54 196.5,248.5C 215.996,249.662 235.662,249.829 255.5,249C 256.774,247.779 258.274,246.946 260,246.5C 261.811,247.424 261.645,248.257 259.5,249C 260.752,251.041 261.419,253.375 261.5,256C 261.47,258.424 261.137,260.757 260.5,263C 257.167,263.667 253.833,263.667 250.5,263C 245.702,261.025 240.702,259.692 235.5,259C 226.197,257.505 216.864,256.338 207.5,255.5 Z"/></g>
<g><path style="opacity:1" fill="#21a9bf" d="M 339.5,247.5 C 340.833,247.5 342.167,247.5 343.5,247.5C 366.168,248.286 389.002,248.953 412,249.5C 416.631,249.7 421.131,250.366 425.5,251.5C 421.733,252.795 417.733,253.461 413.5,253.5C 414.609,252.71 415.942,252.21 417.5,252C 394.389,254.516 371.389,258.016 348.5,262.5C 343.519,263.728 338.519,263.728 333.5,262.5C 332.974,259.139 331.974,255.972 330.5,253C 331.333,250.5 332.167,248 333,245.5C 334.897,247.016 337.064,247.683 339.5,247.5 Z"/></g>
<g><path style="opacity:1" fill="#636a69" d="M 463.5,251.5 C 463.5,251.167 463.5,250.833 463.5,250.5C 465.5,250.5 467.5,250.5 469.5,250.5C 469.737,251.791 469.404,252.791 468.5,253.5C 467.448,251.744 465.781,251.077 463.5,251.5 Z"/></g>
<g><path style="opacity:1" fill="#d5e5e4" d="M 327.5,229.5 C 327.439,238.094 325.939,246.427 323,254.5C 322.623,255.942 321.79,256.942 320.5,257.5C 319.903,257.265 319.57,256.765 319.5,256C 322.103,249.031 323.769,241.864 324.5,234.5C 325.241,229.625 326.075,224.625 327,219.5C 327.498,222.817 327.665,226.15 327.5,229.5 Z"/></g>
<g><path style="opacity:1" fill="#688e94" d="M 173.5,252.5 C 174.449,251.848 175.615,251.514 177,251.5C 181.678,251.944 186.178,252.611 190.5,253.5C 189.448,253.351 188.448,253.517 187.5,254C 189.382,254.198 191.048,254.698 192.5,255.5C 192.5,255.833 192.5,256.167 192.5,256.5C 186.07,255.485 179.736,254.152 173.5,252.5 Z"/></g>
<g><path style="opacity:1" fill="#c6dcdd" d="M 129.5,250.5 C 127.726,256.043 128.393,261.21 131.5,266C 131.272,266.399 130.938,266.565 130.5,266.5C 125.962,262.23 123.962,256.897 124.5,250.5C 126.167,250.5 127.833,250.5 129.5,250.5 Z"/></g>
<g><path style="opacity:1" fill="#232f33" d="M 271.5,238.5 C 272.419,245.934 275.085,252.601 279.5,258.5C 276.833,258.5 274.167,258.5 271.5,258.5C 271.5,257.5 271.5,256.5 271.5,255.5C 272.458,255.953 273.292,256.619 274,257.5C 274.167,257 274.333,256.5 274.5,256C 271.75,250.237 270.75,244.403 271.5,238.5 Z"/></g>
<g><path style="opacity:1" fill="#1b9fb8" d="M 463.5,250.5 C 463.5,250.833 463.5,251.167 463.5,251.5C 465.916,256.036 465.916,260.703 463.5,265.5C 462.653,266.966 461.32,267.8 459.5,268C 455.833,268.667 452.167,268.667 448.5,268C 447.058,267.623 446.058,266.79 445.5,265.5C 443.301,261.549 441.301,257.549 439.5,253.5C 447.058,249.742 455.058,248.742 463.5,250.5 Z"/></g>
<g><path style="opacity:1" fill="#ddebeb" d="M 463.5,251.5 C 465.781,251.077 467.448,251.744 468.5,253.5C 468.759,258.41 467.093,262.41 463.5,265.5C 465.916,260.703 465.916,256.036 463.5,251.5 Z"/></g>
<g><path style="opacity:1" fill="#194a52" d="M 190.5,253.5 C 196.096,254.71 201.762,255.377 207.5,255.5C 218.243,257.464 228.91,259.797 239.5,262.5C 223.82,260.276 208.153,257.942 192.5,255.5C 191.048,254.698 189.382,254.198 187.5,254C 188.448,253.517 189.448,253.351 190.5,253.5 Z"/></g>
<g><path style="opacity:1" fill="#16313b" d="M 324.5,234.5 C 323.769,241.864 322.103,249.031 319.5,256C 319.57,256.765 319.903,257.265 320.5,257.5C 319.434,258.692 318.601,258.359 318,256.5C 317.184,257.823 316.017,258.489 314.5,258.5C 316.488,256.535 317.988,254.202 319,251.5C 320.973,245.751 322.806,240.084 324.5,234.5 Z"/></g>
<g><path style="opacity:1" fill="#18525b" d="M 413.5,253.5 C 391.796,256.574 370.13,259.907 348.5,263.5C 348.5,263.167 348.5,262.833 348.5,262.5C 371.389,258.016 394.389,254.516 417.5,252C 415.942,252.21 414.609,252.71 413.5,253.5 Z"/></g>
<g><path style="opacity:1" fill="#cee7ea" d="M 439.5,253.5 C 441.301,257.549 443.301,261.549 445.5,265.5C 442.909,264.746 441.076,263.079 440,260.5C 439.443,258.385 438.609,256.385 437.5,254.5C 437.957,253.702 438.624,253.369 439.5,253.5 Z"/></g>
<g><path style="opacity:1" fill="#16a1bc" d="M 154.5,253.5 C 153.503,253.47 152.836,253.97 152.5,255C 152.156,259.021 150.49,262.354 147.5,265C 147.728,265.399 148.062,265.565 148.5,265.5C 145.707,267.92 142.374,268.92 138.5,268.5C 135.473,268.713 132.807,268.047 130.5,266.5C 130.938,266.565 131.272,266.399 131.5,266C 128.393,261.21 127.726,256.043 129.5,250.5C 138.262,248.699 146.595,249.699 154.5,253.5 Z"/></g>
<g><path style="opacity:1" fill="#b0dbdf" d="M 154.5,253.5 C 154.747,258.342 152.747,262.342 148.5,265.5C 148.062,265.565 147.728,265.399 147.5,265C 150.49,262.354 152.156,259.021 152.5,255C 152.836,253.97 153.503,253.47 154.5,253.5 Z"/></g>
<g><path style="opacity:1" fill="#b3ccd2" d="M 413.5,253.5 C 403.998,255.735 394.331,257.735 384.5,259.5C 366.149,262.392 347.816,265.392 329.5,268.5C 329.5,265.833 329.5,263.167 329.5,260.5C 330.222,260.082 330.722,259.416 331,258.5C 331.333,260.833 331.667,263.167 332,265.5C 332.561,266.022 333.228,266.355 334,266.5C 338.976,265.537 343.809,264.537 348.5,263.5C 370.13,259.907 391.796,256.574 413.5,253.5 Z"/></g>
<g><path style="opacity:1" fill="#aec5cb" d="M 192.5,256.5 C 192.5,256.167 192.5,255.833 192.5,255.5C 208.153,257.942 223.82,260.276 239.5,262.5C 245.12,263.664 250.12,264.998 254.5,266.5C 237.73,264.26 221.063,261.594 204.5,258.5C 200.546,257.619 196.546,256.952 192.5,256.5 Z"/></g>
<g><path style="opacity:1" fill="#3290a0" d="M 331.5,239.5 C 333.22,243.22 335.887,245.887 339.5,247.5C 337.064,247.683 334.897,247.016 333,245.5C 332.167,248 331.333,250.5 330.5,253C 331.974,255.972 332.974,259.139 333.5,262.5C 338.519,263.728 343.519,263.728 348.5,262.5C 348.5,262.833 348.5,263.167 348.5,263.5C 343.809,264.537 338.976,265.537 334,266.5C 333.228,266.355 332.561,266.022 332,265.5C 331.667,263.167 331.333,260.833 331,258.5C 330.722,259.416 330.222,260.082 329.5,260.5C 329.112,253.253 329.779,246.253 331.5,239.5 Z"/></g>
<g><path style="opacity:1" fill="#e4e5e3" d="M 319.5,295.5 C 318.91,296.766 318.41,298.099 318,299.5C 317.107,300.711 316.274,300.711 315.5,299.5C 318.376,290.726 319.209,281.726 318,272.5C 317.535,271.069 316.701,269.903 315.5,269C 309.093,269.878 302.593,270.378 296,270.5C 290.706,270.67 285.54,270.003 280.5,268.5C 276.968,269.87 275.135,272.536 275,276.5C 274.072,284.029 274.905,291.362 277.5,298.5C 277.253,299.713 276.586,300.38 275.5,300.5C 271.384,289.403 270.55,278.07 273,266.5C 273.479,264.354 274.812,263.354 277,263.5C 283.061,266.098 289.394,267.432 296,267.5C 303.691,266.958 311.191,265.791 318.5,264C 320.317,265.8 321.484,267.966 322,270.5C 322.962,279.035 322.129,287.368 319.5,295.5 Z"/></g>
<g><path style="opacity:1" fill="#3c5b89" d="M 399.5,262.5 C 399.5,263.167 399.5,263.833 399.5,264.5C 394.468,266.37 389.135,267.037 383.5,266.5C 383.649,267.552 383.483,268.552 383,269.5C 377.52,267.353 372.687,268.687 368.5,273.5C 367.167,272.833 365.833,272.167 364.5,271.5C 354.698,271.765 346.198,275.432 339,282.5C 337.573,286.881 336.073,291.214 334.5,295.5C 334.667,298.687 335.667,301.521 337.5,304C 336.106,304.956 335.439,306.289 335.5,308C 336.364,310.228 337.364,312.395 338.5,314.5C 339.642,312.197 340.975,310.03 342.5,308C 341.852,306.56 341.519,305.06 341.5,303.5C 343.288,303.785 344.955,303.452 346.5,302.5C 346.291,301.914 345.957,301.414 345.5,301C 352.336,299.552 358.67,297.052 364.5,293.5C 361.663,298.454 357.33,300.954 351.5,301C 346.337,305.816 342.003,311.316 338.5,317.5C 337.603,318.598 336.77,318.598 336,317.5C 335.194,311.405 333.027,305.905 329.5,301C 332.104,294.442 334.938,287.942 338,281.5C 342.064,275.877 347.564,272.377 354.5,271C 369.459,267.841 384.459,265.008 399.5,262.5 Z"/></g>
<g><path style="opacity:1" fill="#bbdee3" d="M 264.5,261.5 C 264.808,263.924 264.474,266.257 263.5,268.5C 261.253,267.626 258.92,267.292 256.5,267.5C 257.952,266.698 259.618,266.198 261.5,266C 261.915,263.974 262.915,262.474 264.5,261.5 Z"/></g>
<g><path style="opacity:1" fill="#396098" d="M 233.5,270.5 C 240.413,270.956 246.746,273.122 252.5,277C 257.115,283.402 260.782,290.235 263.5,297.5C 263.5,298.5 263.5,299.5 263.5,300.5C 254.143,300.832 244.81,300.498 235.5,299.5C 227.246,291.583 218.913,283.583 210.5,275.5C 209.221,280.551 209.221,285.551 210.5,290.5C 212.361,292.745 213.361,295.412 213.5,298.5C 207.575,298.808 201.741,298.475 196,297.5C 195.5,286.505 195.333,275.505 195.5,264.5C 208.091,266.629 220.757,268.629 233.5,270.5 Z"/></g>
<g><path style="opacity:1" fill="#293a4b" d="M 399.5,262.5 C 400.495,274.989 400.829,287.656 400.5,300.5C 391.494,300.666 382.494,300.5 373.5,300C 374.044,299.283 374.711,298.783 375.5,298.5C 383.316,299.492 391.316,299.826 399.5,299.5C 399.5,287.833 399.5,276.167 399.5,264.5C 399.5,263.833 399.5,263.167 399.5,262.5 Z"/></g>
<g><path style="opacity:1" fill="#465c5e" d="M 322.5,300.5 C 322.5,299.833 322.5,299.167 322.5,298.5C 324.875,292.227 327.375,285.893 330,279.5C 331.353,278.315 332.52,276.981 333.5,275.5C 333.833,275.667 334.167,275.833 334.5,276C 330.38,284.244 326.38,292.411 322.5,300.5 Z"/></g>
<g><path style="opacity:1" fill="#c4e7eb" d="M 300.5,279.5 C 295.107,280.582 290.773,283.249 287.5,287.5C 288.884,279.977 293.217,277.31 300.5,279.5 Z"/></g>
<g><path style="opacity:1" fill="#39619c" d="M 399.5,264.5 C 399.5,276.167 399.5,287.833 399.5,299.5C 391.316,299.826 383.316,299.492 375.5,298.5C 378.118,295.215 381.118,292.215 384.5,289.5C 385.833,284.833 385.833,280.167 384.5,275.5C 377.827,281.535 371.161,287.535 364.5,293.5C 358.67,297.052 352.336,299.552 345.5,301C 345.957,301.414 346.291,301.914 346.5,302.5C 344.955,303.452 343.288,303.785 341.5,303.5C 341.519,305.06 341.852,306.56 342.5,308C 340.975,310.03 339.642,312.197 338.5,314.5C 337.364,312.395 336.364,310.228 335.5,308C 335.439,306.289 336.106,304.956 337.5,304C 335.667,301.521 334.667,298.687 334.5,295.5C 336.073,291.214 337.573,286.881 339,282.5C 346.198,275.432 354.698,271.765 364.5,271.5C 365.833,272.167 367.167,272.833 368.5,273.5C 372.687,268.687 377.52,267.353 383,269.5C 383.483,268.552 383.649,267.552 383.5,266.5C 389.135,267.037 394.468,266.37 399.5,264.5 Z"/></g>
<g><path style="opacity:1" fill="#26a2b8" d="M 300.5,279.5 C 307.081,284.361 307.081,289.528 300.5,295C 293.361,297.103 289.027,294.603 287.5,287.5C 290.773,283.249 295.107,280.582 300.5,279.5 Z"/></g>
<g><path style="opacity:1" fill="#506166" d="M 270.5,300.5 C 269.687,298.739 268.687,297.072 267.5,295.5C 265.961,289.221 263.628,283.221 260.5,277.5C 261.355,276.707 262.189,277.04 263,278.5C 266.142,285.375 268.975,292.375 271.5,299.5C 271.376,300.107 271.043,300.44 270.5,300.5 Z"/></g>
<g><path style="opacity:1" fill="#3d577e" d="M 233.5,270.5 C 220.757,268.629 208.091,266.629 195.5,264.5C 195.333,275.505 195.5,286.505 196,297.5C 201.741,298.475 207.575,298.808 213.5,298.5C 213.361,295.412 212.361,292.745 210.5,290.5C 214,293.831 217.666,296.998 221.5,300C 212.324,300.824 203.324,300.657 194.5,299.5C 194.5,287.167 194.5,274.833 194.5,262.5C 207.817,264.215 220.817,266.882 233.5,270.5 Z"/></g>
<g><path style="opacity:1" fill="#f5f5f5" d="M 166.5,333.5 C 167.043,333.44 167.376,333.107 167.5,332.5C 159.343,331.18 151.343,331.18 143.5,332.5C 141.857,337.738 140.524,343.071 139.5,348.5C 135.757,350.176 132.424,349.843 129.5,347.5C 132.676,333.798 136.009,320.131 139.5,306.5C 143.167,306.5 146.833,306.5 150.5,306.5C 149.167,312.167 147.833,317.833 146.5,323.5C 154.167,323.5 161.833,323.5 169.5,323.5C 170.833,317.833 172.167,312.167 173.5,306.5C 177.182,306.335 180.848,306.501 184.5,307C 180.442,321.062 176.609,335.228 173,349.5C 169.606,350.456 166.106,350.789 162.5,350.5C 163.36,344.726 164.694,339.059 166.5,333.5 Z"/></g>
<g><path style="opacity:1" fill="#f3f3f3" d="M 436.5,348.5 C 432.936,349.423 429.269,349.756 425.5,349.5C 426.677,343.792 428.01,338.126 429.5,332.5C 421.472,332.169 413.472,332.502 405.5,333.5C 404.476,338.93 403.142,344.263 401.5,349.5C 397.958,349.813 394.625,349.479 391.5,348.5C 394.372,335.013 397.872,321.68 402,308.5C 405.149,306.638 408.649,305.971 412.5,306.5C 411.178,312.131 410.178,317.797 409.5,323.5C 417.167,323.5 424.833,323.5 432.5,323.5C 433.68,317.781 435.013,312.114 436.5,306.5C 439.833,306.5 443.167,306.5 446.5,306.5C 443.17,320.488 439.837,334.488 436.5,348.5 Z"/></g>
<g><path style="opacity:1" fill="#f1f1f1" d="M 476.5,305.5 C 483.247,304.566 487.747,307.232 490,313.5C 492.565,325.492 495.065,337.492 497.5,349.5C 493.893,350.489 490.226,350.823 486.5,350.5C 486.708,348.08 486.374,345.747 485.5,343.5C 476.518,342.335 467.518,342.168 458.5,343C 456.47,344.896 454.803,347.063 453.5,349.5C 449.833,350.833 446.167,350.833 442.5,349.5C 450.804,336.697 459.304,324.03 468,311.5C 470.322,308.605 473.155,306.605 476.5,305.5 Z"/></g>
<g><path style="opacity:1" fill="#f6f6f6" d="M 103.5,349.5 C 99.6707,350.069 96.3373,349.402 93.5,347.5C 95.7566,337.063 98.4232,326.73 101.5,316.5C 96.544,315.506 91.544,315.173 86.5,315.5C 86.6203,312.52 87.287,309.687 88.5,307C 103.163,306.5 117.83,306.333 132.5,306.5C 132.149,309.238 131.482,311.904 130.5,314.5C 124.279,315.185 118.112,315.852 112,316.5C 109.002,327.492 106.169,338.492 103.5,349.5 Z"/></g>
<g><path style="opacity:1" fill="#f5f5f5" d="M 194.5,340.5 C 204.833,341.167 215.167,341.833 225.5,342.5C 225.039,344.55 224.372,346.55 223.5,348.5C 209.516,349.499 195.516,349.833 181.5,349.5C 185.324,335.203 188.991,320.87 192.5,306.5C 206.5,306.5 220.5,306.5 234.5,306.5C 233.833,309.5 233.167,312.5 232.5,315.5C 222.145,315.168 211.812,315.501 201.5,316.5C 200.054,318.618 199.387,320.951 199.5,323.5C 208.5,323.5 217.5,323.5 226.5,323.5C 225.833,326.5 225.167,329.5 224.5,332.5C 215.167,332.5 205.833,332.5 196.5,332.5C 196.037,335.221 195.371,337.888 194.5,340.5 Z"/></g>
<g><path style="opacity:1" fill="#f5f5f5" d="M 270.5,349.5 C 257.124,350.148 244.124,349.481 231.5,347.5C 234.624,333.837 238.29,320.337 242.5,307C 256.5,306.333 270.5,306.333 284.5,307C 286.152,308.47 287.152,310.303 287.5,312.5C 286.489,316.877 285.322,321.21 284,325.5C 282.745,326.211 281.579,327.044 280.5,328C 282.325,329.466 282.825,331.299 282,333.5C 280.667,337.5 279.333,341.5 278,345.5C 275.815,347.54 273.315,348.874 270.5,349.5 Z"/></g>
<g><path style="opacity:1" fill="#f1f1f1" d="M 335.5,348.5 C 332.375,349.479 329.042,349.813 325.5,349.5C 324.532,347.393 324.198,345.059 324.5,342.5C 315.161,342.334 305.827,342.5 296.5,343C 294.833,345.333 293.167,347.667 291.5,350C 288.118,350.824 284.784,350.657 281.5,349.5C 290.463,335.739 299.797,322.239 309.5,309C 317.748,303.288 324.248,304.788 329,313.5C 330.977,325.217 333.144,336.883 335.5,348.5 Z"/></g>
<g><path style="opacity:1" fill="#f7f7f7" d="M 392.5,314.5 C 381.401,315.146 370.401,315.813 359.5,316.5C 357.132,323.284 355.132,330.284 353.5,337.5C 352.566,338.568 352.232,339.901 352.5,341.5C 363.5,341.5 374.5,341.5 385.5,341.5C 384.629,344.112 383.963,346.779 383.5,349.5C 370.163,349.667 356.829,349.5 343.5,349C 341.993,347.527 341.326,345.693 341.5,343.5C 343.735,331.893 346.901,320.56 351,309.5C 352.255,308.789 353.421,307.956 354.5,307C 367.846,306.167 381.179,306.334 394.5,307.5C 393.423,309.729 392.756,312.063 392.5,314.5 Z"/></g>
<g><path style="opacity:1" fill="#3b3c3c" d="M 392.5,314.5 C 381.884,316.477 370.884,317.144 359.5,316.5C 370.401,315.813 381.401,315.146 392.5,314.5 Z"/></g>
<g><path style="opacity:1" fill="#0e0e0e" d="M 250.5,315.5 C 258.833,315.5 267.167,315.5 275.5,315.5C 275.708,317.92 275.374,320.253 274.5,322.5C 265.859,323.498 257.192,323.831 248.5,323.5C 248.963,320.779 249.629,318.112 250.5,315.5 Z"/></g>
<g><path style="opacity:1" fill="#101010" d="M 476.5,315.5 C 478.124,315.36 479.29,316.027 480,317.5C 481.288,322.773 482.122,328.106 482.5,333.5C 476.491,333.666 470.491,333.499 464.5,333C 469.137,327.543 473.137,321.709 476.5,315.5 Z"/></g>
<g><path style="opacity:1" fill="#0e0e0e" d="M 315.5,316.5 C 317.124,316.36 318.29,317.027 319,318.5C 320.158,323.457 320.992,328.457 321.5,333.5C 315.794,333.829 310.128,333.495 304.5,332.5C 308.192,327.149 311.859,321.815 315.5,316.5 Z"/></g>
<g><path style="opacity:1" fill="#939393" d="M 143.5,332.5 C 151.343,331.18 159.343,331.18 167.5,332.5C 167.376,333.107 167.043,333.44 166.5,333.5C 159.018,332.508 151.352,332.175 143.5,332.5 Z"/></g>
<g><path style="opacity:1" fill="#060606" d="M 269.5,340.5 C 260.766,341.135 252.433,340.468 244.5,338.5C 244.833,336.5 245.167,334.5 245.5,332.5C 254.173,332.334 262.84,332.5 271.5,333C 270.133,335.301 269.466,337.801 269.5,340.5 Z"/></g>
<g><path style="opacity:1" fill="#8d8d8d" d="M 194.5,340.5 C 205.187,340.168 215.854,340.501 226.5,341.5C 226.376,342.107 226.043,342.44 225.5,342.5C 215.167,341.833 204.833,341.167 194.5,340.5 Z"/></g>
<g><path style="opacity:1" fill="#8b8b8b" d="M 244.5,338.5 C 252.433,340.468 260.766,341.135 269.5,340.5C 261.016,341.493 252.349,341.826 243.5,341.5C 243.263,340.209 243.596,339.209 244.5,338.5 Z"/></g>
<g><path style="opacity:1" fill="#888988" d="M 353.5,337.5 C 353.5,338.5 353.5,339.5 353.5,340.5C 364.346,340.172 375.013,340.506 385.5,341.5C 374.5,341.5 363.5,341.5 352.5,341.5C 352.232,339.901 352.566,338.568 353.5,337.5 Z"/></g>
<g><path style="opacity:1" fill="#8d8d8d" d="M 93.5,347.5 C 96.3373,349.402 99.6707,350.069 103.5,349.5C 100.038,350.482 96.3714,350.815 92.5,350.5C 92.2627,349.209 92.596,348.209 93.5,347.5 Z"/></g>
<g><path style="opacity:1" fill="#848484" d="M 129.5,347.5 C 132.424,349.843 135.757,350.176 139.5,348.5C 136.316,350.414 132.649,351.08 128.5,350.5C 128.263,349.209 128.596,348.209 129.5,347.5 Z"/></g>
<g><path style="opacity:1" fill="#6f6f6f" d="M 231.5,347.5 C 244.124,349.481 257.124,350.148 270.5,349.5C 257.344,350.496 244.01,350.829 230.5,350.5C 230.263,349.209 230.596,348.209 231.5,347.5 Z"/></g>
<g><path style="opacity:1" fill="#898989" d="M 335.5,348.5 C 336.043,348.56 336.376,348.893 336.5,349.5C 332.685,350.808 329.019,350.808 325.5,349.5C 329.042,349.813 332.375,349.479 335.5,348.5 Z"/></g>
<g><path style="opacity:1" fill="#707070" d="M 391.5,348.5 C 394.625,349.479 397.958,349.813 401.5,349.5C 397.981,350.808 394.315,350.808 390.5,349.5C 390.624,348.893 390.957,348.56 391.5,348.5 Z"/></g>
<g><path style="opacity:1" fill="#838383" d="M 436.5,348.5 C 435.129,349.787 433.295,350.453 431,350.5C 428.967,350.494 427.134,350.161 425.5,349.5C 429.269,349.756 432.936,349.423 436.5,348.5 Z"/></g>
<g><path style="opacity:1" fill="#d6d5d5" d="M 196.5,363.5 C 200.167,363.5 203.833,363.5 207.5,363.5C 207.534,366.199 206.867,368.699 205.5,371C 202.118,371.176 198.785,371.676 195.5,372.5C 195.023,373.931 194.357,375.264 193.5,376.5C 193.167,375.833 192.833,375.167 192.5,374.5C 193.568,370.705 194.902,367.038 196.5,363.5 Z"/></g>
<g><path style="opacity:1" fill="#d1d1d1" d="M 363.5,363.5 C 364.5,363.5 365.5,363.5 366.5,363.5C 366.907,367.203 367.574,370.87 368.5,374.5C 368.167,375.167 367.833,375.833 367.5,376.5C 366.614,375.675 366.281,374.675 366.5,373.5C 363.813,373.336 361.146,373.503 358.5,374C 356.945,375.289 355.279,375.956 353.5,376C 356.287,371.381 359.62,367.215 363.5,363.5 Z"/></g>
<g><path style="opacity:1" fill="#cecece" d="M 266.5,363.5 C 270.884,363.174 275.217,363.508 279.5,364.5C 275.555,365.491 271.555,365.824 267.5,365.5C 266.539,368.426 265.873,371.426 265.5,374.5C 268.898,374.18 272.232,374.513 275.5,375.5C 271.217,376.492 266.884,376.826 262.5,376.5C 263.032,371.905 264.365,367.571 266.5,363.5 Z"/></g>
<g><path style="opacity:1" fill="#151515" d="M 198.5,365.5 C 200.5,365.5 202.5,365.5 204.5,365.5C 204.67,366.822 204.337,367.989 203.5,369C 201.527,369.495 199.527,369.662 197.5,369.5C 197.433,368.041 197.766,366.708 198.5,365.5 Z"/></g>
<g><path style="opacity:1" fill="#cdcdcd" d="M 210.5,363.5 C 212.401,366.343 213.567,369.676 214,373.5C 216.951,370.428 219.784,367.261 222.5,364C 223.332,363.312 223.998,363.479 224.5,364.5C 221.727,368.777 218.393,372.61 214.5,376C 213.552,376.483 212.552,376.649 211.5,376.5C 210.705,372.215 210.372,367.881 210.5,363.5 Z"/></g>
<g><path style="opacity:1" fill="#d3d3d3" d="M 281.5,363.5 C 282.649,363.791 283.316,364.624 283.5,366C 282.462,369.613 281.129,373.113 279.5,376.5C 279.167,375.833 278.833,375.167 278.5,374.5C 279.71,370.872 280.71,367.206 281.5,363.5 Z"/></g>
<g><path style="opacity:1" fill="#d5d5d5" d="M 327.5,363.5 C 328.552,363.351 329.552,363.517 330.5,364C 329.268,367.19 327.935,370.357 326.5,373.5C 329.5,374.167 332.5,374.833 335.5,375.5C 331.541,376.66 327.541,376.827 323.5,376C 325.064,371.914 326.397,367.748 327.5,363.5 Z"/></g>
<g><path style="opacity:1" fill="#dadada" d="M 309.5,369.5 C 312.388,368.99 314.721,369.656 316.5,371.5C 315.847,372.807 315.18,374.14 314.5,375.5C 310.217,376.492 305.884,376.826 301.5,376.5C 302.229,372.314 303.562,368.314 305.5,364.5C 309.833,363.167 314.167,363.167 318.5,364.5C 314.833,365.167 311.167,365.833 307.5,366.5C 305.924,368.979 304.924,371.646 304.5,374.5C 307.187,374.664 309.854,374.497 312.5,374C 312.957,373.586 313.291,373.086 313.5,372.5C 311.833,371.833 310.167,371.167 308.5,370.5C 308.624,369.893 308.957,369.56 309.5,369.5 Z"/></g>
<g><path style="opacity:1" fill="#5b5b5b" d="M 309.5,369.5 C 311.948,368.527 314.615,368.194 317.5,368.5C 317.737,369.791 317.404,370.791 316.5,371.5C 314.721,369.656 312.388,368.99 309.5,369.5 Z"/></g>
<g><path style="opacity:1" fill="#868687" d="M 344.5,366.5 C 345.802,368.028 347.469,369.028 349.5,369.5C 347.5,369.5 345.5,369.5 343.5,369.5C 343.263,368.209 343.596,367.209 344.5,366.5 Z"/></g>
<g><path style="opacity:1" fill="#0e0e0e" d="M 363.5,366.5 C 364.451,367.919 364.784,369.585 364.5,371.5C 363.022,371.762 361.689,371.429 360.5,370.5C 361.524,369.148 362.524,367.815 363.5,366.5 Z"/></g>
<g><path style="opacity:1" fill="#d7d7d7" d="M 409.5,366.5 C 408.596,367.209 408.263,368.209 408.5,369.5C 410.833,369.5 413.167,369.5 415.5,369.5C 415.389,370.117 415.056,370.617 414.5,371C 412.19,371.497 409.857,371.663 407.5,371.5C 407.5,372.5 407.5,373.5 407.5,374.5C 410.572,374.183 413.572,374.516 416.5,375.5C 412.555,376.491 408.555,376.824 404.5,376.5C 405.332,372.17 406.665,368.004 408.5,364C 412.541,363.173 416.541,363.34 420.5,364.5C 416.687,365.167 413.021,365.834 409.5,366.5 Z"/></g>
<g><path style="opacity:1" fill="#777777" d="M 409.5,366.5 C 411.156,368.06 413.156,369.06 415.5,369.5C 413.167,369.5 410.833,369.5 408.5,369.5C 408.263,368.209 408.596,367.209 409.5,366.5 Z"/></g>
<g><path style="opacity:1" fill="#dadada" d="M 181.5,363.5 C 185.226,363.177 188.893,363.511 192.5,364.5C 189.553,365.321 186.553,365.821 183.5,366C 182.663,367.011 182.33,368.178 182.5,369.5C 184.604,369.201 186.604,369.534 188.5,370.5C 185.833,371.167 183.167,371.833 180.5,372.5C 180.023,373.931 179.357,375.264 178.5,376.5C 178.167,375.833 177.833,375.167 177.5,374.5C 178.568,370.705 179.902,367.038 181.5,363.5 Z"/></g>
<g><path style="opacity:1" fill="#d8d8d8" d="M 344.5,366.5 C 343.596,367.209 343.263,368.209 343.5,369.5C 345.5,369.5 347.5,369.5 349.5,369.5C 346.962,370.933 344.295,372.266 341.5,373.5C 344.833,374.167 348.167,374.833 351.5,375.5C 347.167,376.833 342.833,376.833 338.5,375.5C 339.833,371.833 341.167,368.167 342.5,364.5C 346.5,363.167 350.5,363.167 354.5,364.5C 351.023,365.167 347.689,365.834 344.5,366.5 Z"/></g>
<g><path style="opacity:1" fill="#dbdbdb" d="M 374.5,363.5 C 378.884,363.174 383.217,363.508 387.5,364.5C 383.878,365.325 380.211,365.825 376.5,366C 374.804,368.587 373.804,371.421 373.5,374.5C 376.187,374.664 378.854,374.497 381.5,374C 381.957,373.586 382.291,373.086 382.5,372.5C 380.833,371.833 379.167,371.167 377.5,370.5C 380.086,369.52 382.753,369.187 385.5,369.5C 385.335,371.827 384.669,373.993 383.5,376C 379.514,376.499 375.514,376.666 371.5,376.5C 371.476,371.91 372.476,367.577 374.5,363.5 Z"/></g>
<g><path style="opacity:1" fill="#d0d0d0" d="M 390.5,363.5 C 391.586,363.62 392.253,364.287 392.5,365.5C 391.672,368.479 391.005,371.479 390.5,374.5C 393.247,374.813 395.914,374.48 398.5,373.5C 399.42,369.706 401.087,366.373 403.5,363.5C 403.545,367.875 402.212,372.042 399.5,376C 395.514,376.499 391.514,376.666 387.5,376.5C 388.293,372.12 389.293,367.786 390.5,363.5 Z"/></g>
<g><path style="opacity:1" fill="#dddddd" d="M 233.5,363.5 C 237.833,363.5 242.167,363.5 246.5,363.5C 246.477,365.927 245.977,368.26 245,370.5C 243.989,371.337 242.822,371.67 241.5,371.5C 242.052,373.331 242.052,374.997 241.5,376.5C 240.091,374.331 238.258,372.665 236,371.5C 233.68,372.439 232.013,374.105 231,376.5C 231.185,372.098 232.018,367.764 233.5,363.5 Z"/></g>
<g><path style="opacity:1" fill="#171717" d="M 235.5,365.5 C 238.167,365.5 240.833,365.5 243.5,365.5C 243.67,366.822 243.337,367.989 242.5,369C 239.854,369.497 237.187,369.664 234.5,369.5C 234.433,368.041 234.766,366.708 235.5,365.5 Z"/></g>
<g><path style="opacity:1" fill="#d6d6d6" d="M 255.5,363.5 C 256.5,363.5 257.5,363.5 258.5,363.5C 258.909,367.876 259.575,372.21 260.5,376.5C 259.5,376.5 258.5,376.5 257.5,376.5C 257.5,375.5 257.5,374.5 257.5,373.5C 254.813,373.336 252.146,373.503 249.5,374C 248.687,375.885 247.353,376.551 245.5,376C 249.047,371.959 252.38,367.792 255.5,363.5 Z"/></g>
<g><path style="opacity:1" fill="#0b0b0b" d="M 254.5,367.5 C 256.176,368.183 256.843,369.517 256.5,371.5C 255.127,371.657 253.793,371.49 252.5,371C 253.823,370.184 254.489,369.017 254.5,367.5 Z"/></g>
<g><path style="opacity:1" fill="#d5d5d5" d="M 288.5,363.5 C 291.887,365.512 294.387,368.512 296,372.5C 297.442,369.95 298.608,367.284 299.5,364.5C 300.167,363.167 300.833,363.167 301.5,364.5C 300.366,367.07 299.532,369.736 299,372.5C 298.477,374.223 297.477,375.556 296,376.5C 293.763,373.702 291.763,370.702 290,367.5C 288.217,370.343 286.717,373.343 285.5,376.5C 285.407,372.068 286.407,367.735 288.5,363.5 Z"/></g>
<g><path style="opacity:1" fill="#a7a7a7" d="M 272.5,386.5 C 262.985,386.173 253.652,386.506 244.5,387.5C 243.957,387.44 243.624,387.107 243.5,386.5C 253.325,385.177 262.992,385.177 272.5,386.5 Z"/></g>
<g><path style="opacity:1" fill="#aaaaaa" d="M 319.5,386.5 C 329.008,385.177 338.675,385.177 348.5,386.5C 348.376,387.107 348.043,387.44 347.5,387.5C 338.348,386.506 329.015,386.173 319.5,386.5 Z"/></g>
<g><path style="opacity:1" fill="#f9f9f9" d="M 272.5,386.5 C 280.104,394.605 287.937,402.605 296,410.5C 303.62,402.232 311.453,394.232 319.5,386.5C 329.015,386.173 338.348,386.506 347.5,387.5C 330.187,404.645 312.687,421.645 295,438.5C 277.987,421.654 261.153,404.654 244.5,387.5C 253.652,386.506 262.985,386.173 272.5,386.5 Z"/></g>
<g><path style="opacity:1" fill="#3d5581" d="M 287.5,385.5 C 293.621,385.09 299.621,385.59 305.5,387C 302.651,390.016 299.651,392.85 296.5,395.5C 292.567,392.939 289.567,389.606 287.5,385.5 Z"/></g>
</svg>
